HIERARCHY
ROOT hip
{
  OFFSET 0 0 0
  CHANNELS 6 Xposition Yposition Zposition Zrotation Yrotation Xrotation
  JOINT abdomen
  {
    OFFSET 0 20.6881 -0.73152
    CHANNELS 3 Zrotation Xrotation Yrotation
    JOINT chest
    {
      OFFSET 0 11.7043 -0.48768
      CHANNELS 3 Zrotation Xrotation Yrotation
      JOINT neck
      {
        OFFSET 0 22.1894 -2.19456
        CHANNELS 3 Zrotation Xrotation Yrotation
        JOINT head
        {
          OFFSET -0.24384 7.07133 1.2192
          CHANNELS 3 Zrotation Xrotation Yrotation
          JOINT leftEye
          {
            OFFSET 4.14528 8.04674 8.04672
            CHANNELS 3 Zrotation Xrotation Yrotation
            End Site
            {
              OFFSET 1 0 0
            }
          }
          JOINT rightEye
          {
            OFFSET -3.6576 8.04674 8.04672
            CHANNELS 3 Zrotation Xrotation Yrotation
            End Site
            {
              OFFSET 1 0 0
            }
          }
        }
      }
      JOINT rCollar
      {
        OFFSET -2.68224 19.2634 -4.8768
        CHANNELS 3 Zrotation Xrotation Yrotation
        JOINT rShldr
        {
          OFFSET -8.77824 -1.95073 1.46304
          CHANNELS 3 Zrotation Xrotation Yrotation
          JOINT rForeArm
          {
            OFFSET -28.1742 -1.7115 0.48768
            CHANNELS 3 Zrotation Xrotation Yrotation
            JOINT rHand
            {
              OFFSET -22.5879 0.773209 7.07136
              CHANNELS 3 Zrotation Xrotation Yrotation
              JOINT rThumb1
              {
                OFFSET -1.2192 -0.487915 3.41376
                CHANNELS 3 Zrotation Xrotation Yrotation
                JOINT rThumb2
                {
                  OFFSET -3.37035 -0.52449 3.41376
                  CHANNELS 3 Zrotation Xrotation Yrotation
                  End Site
                  {
                    OFFSET -1.78271 -1.18214 1.43049
                  }
                }
              }
              JOINT rIndex1
              {
                OFFSET -7.75947 0.938293 5.60832
                CHANNELS 3 Zrotation Xrotation Yrotation
                JOINT rIndex2
                {
                  OFFSET -2.54057 -0.884171 1.56538
                  CHANNELS 3 Zrotation Xrotation Yrotation
                  End Site
                  {
                    OFFSET -1.62519 -0.234802 1.16502
                  }
                }
              }
              JOINT rMid1
              {
                OFFSET -8.24714 1.18213 3.41376
                CHANNELS 3 Zrotation Xrotation Yrotation
                JOINT rMid2
                {
                  OFFSET -3.10165 -0.590103 1.0647
                  CHANNELS 3 Zrotation Xrotation Yrotation
                  End Site
                  {
                    OFFSET -2.48547 -0.328903 0.83742
                  }
                }
              }
              JOINT rRing1
              {
                OFFSET -8.82822 0.546677 1.51678
                CHANNELS 3 Zrotation Xrotation Yrotation
                JOINT rRing2
                {
                  OFFSET -2.60934 -0.819778 -0.0198488
                  CHANNELS 3 Zrotation Xrotation Yrotation
                  End Site
                  {
                    OFFSET -2.33842 -0.294052 0.168128
                  }
                }
              }
              JOINT rPinky1
              {
                OFFSET -8.27202 -0.0477905 -0.4584
                CHANNELS 3 Zrotation Xrotation Yrotation
                JOINT rPinky2
                {
                  OFFSET -1.82734 -0.647385 -0.700984
                  CHANNELS 3 Zrotation Xrotation Yrotation
                  End Site
                  {
                    OFFSET -1.69225 -0.51767 -0.607171
                  }
                }
              }
            }
          }
        }
      }
      JOINT lCollar
      {
        OFFSET 2.68224 19.2634 -4.8768
        CHANNELS 3 Zrotation Xrotation Yrotation
        JOINT lShldr
        {
          OFFSET 8.77824 -1.95073 1.46304
          CHANNELS 3 Zrotation Xrotation Yrotation
          JOINT lForeArm
          {
            OFFSET 28.1742 -1.7115 0.48768
            CHANNELS 3 Zrotation Xrotation Yrotation
            JOINT lHand
            {
              OFFSET 22.5879 0.773209 7.07136
              CHANNELS 3 Zrotation Xrotation Yrotation
              JOINT lThumb1
              {
                OFFSET 1.2192 -0.487915 3.41376
                CHANNELS 3 Zrotation Xrotation Yrotation
                JOINT lThumb2
                {
                  OFFSET 3.37035 -0.52449 3.41376
                  CHANNELS 3 Zrotation Xrotation Yrotation
                  End Site
                  {
                    OFFSET 1.78271 -1.18214 1.43049
                  }
                }
              }
              JOINT lIndex1
              {
                OFFSET 7.75947 0.938293 5.60832
                CHANNELS 3 Zrotation Xrotation Yrotation
                JOINT lIndex2
                {
                  OFFSET 2.54057 -0.884171 1.56538
                  CHANNELS 3 Zrotation Xrotation Yrotation
                  End Site
                  {
                    OFFSET 1.62519 -0.234802 1.16502
                  }
                }
              }
              JOINT lMid1
              {
                OFFSET 8.24714 1.18213 3.41376
                CHANNELS 3 Zrotation Xrotation Yrotation
                JOINT lMid2
                {
                  OFFSET 3.10165 -0.590103 1.0647
                  CHANNELS 3 Zrotation Xrotation Yrotation
                  End Site
                  {
                    OFFSET 2.48547 -0.328903 0.83742
                  }
                }
              }
              JOINT lRing1
              {
                OFFSET 8.82822 0.546677 1.51678
                CHANNELS 3 Zrotation Xrotation Yrotation
                JOINT lRing2
                {
                  OFFSET 2.60934 -0.819778 -0.0198488
                  CHANNELS 3 Zrotation Xrotation Yrotation
                  End Site
                  {
                    OFFSET 2.33842 -0.294052 0.168128
                  }
                }
              }
              JOINT lPinky1
              {
                OFFSET 8.27202 -0.0477905 -0.4584
                CHANNELS 3 Zrotation Xrotation Yrotation
                JOINT lPinky2
                {
                  OFFSET 1.82734 -0.647385 -0.700984
                  CHANNELS 3 Zrotation Xrotation Yrotation
                  End Site
                  {
                    OFFSET 1.69225 -0.51767 -0.607171
                  }
                }
              }
            }
          }
        }
      }
    }
  }
  JOINT rButtock
  {
    OFFSET -8.77824 4.35084 1.2192
    CHANNELS 3 Zrotation Xrotation Yrotation
    JOINT rThigh
    {
      OFFSET 0 -1.70687 -2.19456
      CHANNELS 3 Zrotation Xrotation Yrotation
      JOINT rShin
      {
        OFFSET 0 -36.8199 0.73152
        CHANNELS 3 Zrotation Xrotation Yrotation
        JOINT rFoot
        {
          OFFSET 0.73152 -45.1104 -5.12064
          CHANNELS 3 Zrotation Xrotation Yrotation
          End Site
          {
            OFFSET -1.1221 -3.69964 12.103
          }
        }
      }
    }
  }
  JOINT lButtock
  {
    OFFSET 8.77824 4.35084 1.2192
    CHANNELS 3 Zrotation Xrotation Yrotation
    JOINT lThigh
    {
      OFFSET 0 -1.70687 -2.19456
      CHANNELS 3 Zrotation Xrotation Yrotation
      JOINT lShin
      {
        OFFSET 0 -36.8199 0.73152
        CHANNELS 3 Zrotation Xrotation Yrotation
        JOINT lFoot
        {
          OFFSET -0.73152 -45.1104 -5.12064
          CHANNELS 3 Zrotation Xrotation Yrotation
          End Site
          {
            OFFSET 1.1221 -3.69964 12.103
          }
        }
      }
    }
  }
}
MOTION
Frames:	8
Frame Time:	0.00833333
0.96476 84.3996 -79.529 0.0 0.0 0.0 -0.991235 -0.0043416 -0.0274294 -0.273432 -0.0044753 -0.0473712 1.72519e-14 -3.18055e-15 -7.45442e-17 5.13486e-14 -6.36111e-15 -2.34504e-16 -0.0 0.0 0.0 -0.0 0.0 0.0 8.34797e-15 1.20358e-17 1.49089e-16 1.83307e-13 -1.18028e-16 7.95139e-16 3.11943e-12 -9.28921e-13 -3.49861e-14 3.57194e-11 9.61298e-13 -7.63333e-14 8.42547e-11 7.33518e-14 -2.44903e-13 1.45504e-10 1.20861e-13 -4.27785e-13 8.42612e-11 7.63333e-14 -2.48083e-13 7.73091 5.47488 0.417314 8.4255e-11 7.40473e-14 -2.44903e-13 2.90554 0.965183 0.102902 8.42666e-11 7.35503e-14 -2.41722e-13 10.2786 0.731801 0.0259123 8.42531e-11 7.43455e-14 -2.3218e-13 2.22167 -0.733487 -0.20892 8.4499e-15 8.54153e-18 -2.48481e-16 1.78986e-13 -1.05604e-16 -5.96354e-16 3.12286e-12 9.37667e-13 -3.81667e-14 3.57222e-11 -9.0611e-13 -5.40694e-14 8.42688e-11 7.24337e-14 -2.44903e-13 1.45529e-10 1.27222e-13 -4.11882e-13 8.4264e-11 7.43455e-14 -2.25819e-13 -7.73091 5.47488 -0.417314 8.42692e-11 7.25564e-14 -2.41722e-13 -2.90554 0.965183 -0.102902 8.42587e-11 7.28546e-14 -2.39337e-13 -10.2786 0.731801 -0.0259123 8.42732e-11 7.43455e-14 -2.48083e-13 -2.22167 -0.733487 0.20892 -2.03217e-16 0.0 -3.88251e-19 -0.253653 -1.9193 -0.0128571 -0.00929021 -2.07855 -0.0767423 -0.497508 3.99654 0.13813 2.03217e-16 0.0 3.88251e-19 -1.25476 -5.46678 0.10973 -9.59276e-05 4.34726 -0.0243817 0.511469 1.11835 -0.081103
0.298966 81.8702 -82.9199 -2.4779 -1.426 15.1856 -0.439349 5.11469 -0.318247 0.0083966 0.678023 -0.0936765 -0.207185 1.85943 0.217504 -0.267626 -0.482406 0.444751 -0.0 0.0 0.0 -0.0 0.0 0.0 -2.95803e-15 -2.43166e-14 1.8697e-14 21.5461 5.28321 1.10338 -5.08605 -2.51437 7.71067 0.0520953 5.06657 0.702042 -1.2855e-10 -4.62252e-11 3.10525e-10 -2.17569e-10 -8.03265e-11 5.39724e-10 -1.28545e-10 -4.62221e-11 3.10523e-10 7.73091 5.47488 0.417314 -1.2855e-10 -4.62241e-11 3.10527e-10 2.90554 0.965183 0.102902 -1.2854e-10 -4.62249e-11 3.1053e-10 10.2786 0.731801 0.0259123 -1.28552e-10 -4.6224e-11 3.10541e-10 2.22167 -0.733487 -0.20892 -2.84028e-15 -2.43207e-14 1.83379e-14 -21.6479 9.65565 -1.78623 4.23927 -1.93004 -6.61724 -0.0522645 -5.07493 0.703168 6.22019e-11 -1.67253e-10 -4.03452e-10 1.11097e-10 -2.89129e-10 -6.96911e-10 6.21979e-11 -1.67252e-10 -4.03435e-10 -7.73091 5.47488 -0.417314 6.2203e-11 -1.67253e-10 -4.03453e-10 -2.90554 0.965183 -0.102902 6.21946e-11 -1.67253e-10 -4.03449e-10 -10.2786 0.731801 -0.0259123 6.22068e-11 -1.67252e-10 -4.03458e-10 -2.22167 -0.733487 0.20892 -2.03217e-16 0.0 -3.88251e-19 -0.38712 -12.5474 -1.33375 -0.00792834 8.31711 0.0598211 -0.44012 0.312285 0.603999 2.03217e-16 0.0 3.88251e-19 -0.17847 -15.4491 2.72949 -0.00948831 13.6335 -0.176979 0.607392 -1.8625 0.813592
0.273725 81.9041 -82.927 -2.4302 -1.4213 15.2154 0.201408 10.5258 -0.632547 0.307201 1.39829 -0.142313 -0.441127 3.82343 0.448705 -0.542778 -0.991873 0.915951 -0.0 0.0 0.0 -0.0 0.0 0.0 -1.44333e-14 -5.10805e-14 4.02756e-14 44.0991 10.8563 2.30106 -9.73422 -5.02094 15.9097 -0.0298891 10.4204 1.46272 -3.72153e-10 -9.43769e-11 6.48128e-10 -6.33444e-10 -1.64014e-10 1.12674e-09 -3.7215e-10 -9.43737e-11 6.48128e-10 7.73091 5.47488 0.417314 -3.72154e-10 -9.43752e-11 6.48133e-10 2.90554 0.965183 0.102902 -3.72145e-10 -9.43765e-11 6.48136e-10 10.2786 0.731801 0.0259123 -3.72157e-10 -9.43753e-11 6.48148e-10 2.22167 -0.733487 -0.20892 -1.42982e-14 -5.10852e-14 3.99557e-14 -43.8373 19.816 -3.85039 8.23577 -3.88185 -13.6308 0.0299708 -10.4332 1.46452 3.19842e-11 -3.45001e-10 -8.48944e-10 6.30258e-11 -5.96339e-10 -1.46657e-09 3.1981e-11 -3.45001e-10 -8.48928e-10 -7.73091 5.47488 -0.417314 3.19859e-11 -3.45001e-10 -8.48948e-10 -2.90554 0.965183 -0.102902 3.19799e-11 -3.45001e-10 -8.48943e-10 -10.2786 0.731801 -0.0259123 3.19897e-11 -3.44999e-10 -8.48953e-10 -2.22167 -0.733487 0.20892 -2.03217e-16 0.0 -3.88251e-19 -1.10831 -23.766 -2.91087 -0.0627147 19.3137 0.215041 -0.31405 -3.58428 1.09933 2.03217e-16 0.0 3.88251e-19 2.05494 -25.9196 5.89287 0.0390836 23.4569 -0.357779 0.810088 -5.01515 1.76317
0.232196 81.9301 -82.9463 -2.4475 -1.4128 15.2984 0.825321 15.3511 -0.929236 0.575366 2.04301 -0.186386 -0.664077 5.57796 0.655272 -0.780407 -1.44687 1.33463 -0.0 0.0 0.0 -0.0 0.0 0.0 -2.557e-14 -7.2974e-14 5.57929e-14 64.0077 15.8256 3.42609 -13.2766 -6.99786 23.2932 -0.227579 15.1904 2.17389 -5.54159e-10 -1.38822e-10 9.32066e-10 -9.43713e-10 -2.41221e-10 1.62003e-09 -5.54157e-10 -1.38819e-10 9.32066e-10 7.73091 5.47488 0.417314 -5.5416e-10 -1.3882e-10 9.32071e-10 2.90554 0.965183 0.102902 -5.54153e-10 -1.38822e-10 9.32075e-10 10.2786 0.731801 0.0259123 -5.54163e-10 -1.38821e-10 9.32087e-10 2.22167 -0.733487 -0.20892 -2.54207e-14 -7.2979e-14 5.55106e-14 -62.9233 28.8461 -6.0337 11.405 -5.48182 -19.9354 0.22836 -15.2154 2.1776 1.80681e-11 -5.01905e-10 -1.20987e-09 4.22335e-11 -8.67641e-10 -2.08991e-09 1.80656e-11 -5.01906e-10 -1.20985e-09 -7.73091 5.47488 -0.417314 1.80704e-11 -5.01905e-10 -1.20988e-09 -2.90554 0.965183 -0.102902 1.80665e-11 -5.01905e-10 -1.20987e-09 -10.2786 0.731801 -0.0259123 1.80741e-11 -5.01904e-10 -1.20988e-09 -2.22167 -0.733487 0.20892 -2.03217e-16 0.0 -3.88251e-19 -2.38049 -33.7257 -4.66668 -0.169084 29.1079 0.378801 -0.144572 -7.05366 1.5481 2.03217e-16 0.0 3.88251e-19 5.246 -35.0992 9.39353 0.144648 32.2048 -0.552335 1.08047 -7.81664 2.62608
0.196714 81.9645 -82.9512 -2.4519 -1.3614 15.3179 1.29288 18.7132 -1.15443 0.764645 2.49891 -0.218962 -0.829375 6.80915 0.797626 -0.940133 -1.76603 1.62166 -0.0 0.0 0.0 -0.0 0.0 0.0 -3.58604e-14 -8.26915e-14 5.61567e-14 77.7563 19.3082 4.25999 -15.4328 -8.17065 28.484 -0.43953 18.51 2.69685 -5.8217e-10 -1.74002e-10 1.08184e-09 -9.89968e-10 -3.02226e-10 1.87898e-09 -5.82168e-10 -1.73999e-10 1.08184e-09 7.73091 5.47488 0.417314 -5.82171e-10 -1.74e-10 1.08184e-09 2.90554 0.965183 0.102902 -5.82165e-10 -1.74002e-10 1.08185e-09 10.2786 0.731801 0.0259123 -5.82175e-10 -1.74001e-10 1.08186e-09 2.22167 -0.733487 -0.20892 -3.57044e-14 -8.26962e-14 5.59082e-14 -75.7324 35.1631 -7.88855 13.4171 -6.4936 -24.3886 0.442331 -18.5663 2.70566 4.49063e-11 -6.06704e-10 -1.35937e-09 8.964e-11 -1.04917e-09 -2.34744e-09 4.49043e-11 -6.06705e-10 -1.35936e-09 -7.73091 5.47488 -0.417314 4.49091e-11 -6.06703e-10 -1.35938e-09 -2.90554 0.965183 -0.102902 4.49065e-11 -6.06704e-10 -1.35937e-09 -10.2786 0.731801 -0.0259123 4.49122e-11 -6.06702e-10 -1.35938e-09 -2.22167 -0.733487 0.20892 -2.03217e-16 0.0 -3.88251e-19 -3.74137 -40.6102 -6.23792 -0.284047 35.8966 0.518059 0.00510697 -9.45763 1.86597 2.03217e-16 0.0 3.88251e-19 8.36043 -41.3391 12.4562 0.26297 38.265 -0.718095 1.32139 -9.74763 3.24885
0.161594 81.9975 -82.9451 -2.4532 -1.3257 15.3505 1.4875 20.0297 -1.26199 0.842754 2.68974 -0.236071 -0.901852 7.31214 0.847896 -0.996443 -1.90329 1.72357 -0.0 0.0 0.0 -0.0 0.0 0.0 -4.6401e-14 -7.33502e-14 3.11125e-14 83.0952 20.7289 4.60493 -16.2095 -8.57267 30.5196 -0.539957 19.8058 2.90891 -3.51244e-10 -1.9652e-10 1.01517e-09 -5.92167e-10 -3.41046e-10 1.75966e-09 -3.51241e-10 -1.96519e-10 1.01516e-09 7.73091 5.47488 0.417314 -3.51245e-10 -1.96521e-10 1.01517e-09 2.90554 0.965183 0.102902 -3.5124e-10 -1.96522e-10 1.01517e-09 10.2786 0.731801 0.0259123 -3.51251e-10 -1.96521e-10 1.01518e-09 2.22167 -0.733487 -0.20892 -4.62489e-14 -7.33531e-14 3.08959e-14 -80.622 37.7764 -8.74024 14.1887 -6.88144 -26.2004 0.546486 -19.9193 2.9271 1.46059e-10 -6.40745e-10 -1.1532e-09 2.61583e-10 -1.10902e-09 -1.98938e-09 1.46057e-10 -6.40746e-10 -1.15318e-09 -7.73091 5.47488 -0.417314 1.46062e-10 -6.40744e-10 -1.1532e-09 -2.90554 0.965183 -0.102902 1.4606e-10 -6.40745e-10 -1.1532e-09 -10.2786 0.731801 -0.0259123 1.46064e-10 -6.40743e-10 -1.15321e-09 -2.22167 -0.733487 0.20892 -2.03217e-16 0.0 -3.88251e-19 -4.40078 -43.2579 -6.97774 -0.339283 38.4795 0.579114 0.068931 -10.372 1.98929 2.03217e-16 0.0 3.88251e-19 9.82426 -43.7139 13.8225 0.32038 40.5643 -0.790498 1.43071 -10.4645 3.51707
0.127128 82.0315 -82.9348 -2.4572 -1.2881 15.3757 1.47275 19.8853 -1.279 0.84118 2.69127 -0.242083 -0.904847 7.29485 0.831871 -0.980577 -1.9103 1.69322 -0.0 0.0 0.0 -0.0 0.0 0.0 -5.7052e-14 -5.04913e-14 -1.18805e-14 82.4823 20.6819 4.57537 -16.1199 -8.52504 30.2822 -0.528072 19.6579 2.88448 6.25731e-11 -2.0998e-10 7.95254e-10 1.19273e-10 -3.63995e-10 1.37254e-09 6.25789e-11 -2.0998e-10 7.95249e-10 7.73091 5.47488 0.417314 6.25728e-11 -2.09984e-10 7.95256e-10 2.90554 0.965183 0.102902 6.25771e-11 -2.09984e-10 7.9526e-10 10.2786 0.731801 0.0259123 6.25655e-11 -2.09983e-10 7.95267e-10 2.22167 -0.733487 -0.20892 -5.69113e-14 -5.04913e-14 -1.20669e-14 -80.1198 37.7774 -8.6814 14.1599 -6.88276 -26.1136 0.538825 -19.8472 2.91476 2.99472e-10 -6.24142e-10 -6.95805e-10 5.21096e-10 -1.08176e-09 -1.19653e-09 2.9947e-10 -6.24141e-10 -6.95795e-10 -7.73091 5.47488 -0.417314 2.99476e-10 -6.2414e-10 -6.95811e-10 -2.90554 0.965183 -0.102902 2.99473e-10 -6.2414e-10 -6.95806e-10 -10.2786 0.731801 -0.0259123 2.99475e-10 -6.2414e-10 -6.95815e-10 -2.22167 -0.733487 0.20892 -2.03217e-16 0.0 -3.88251e-19 -4.29343 -42.9019 -6.91203 -0.330371 38.0586 0.56862 0.0577386 -10.2228 1.96986 2.03217e-16 0.0 3.88251e-19 9.63873 -43.4113 13.6048 0.310763 40.1776 -0.778153 1.42435 -10.3159 3.52675
0.0939544 82.0671 -82.921 -2.4609 -1.2523 15.3924 1.37187 19.1541 -1.25517 0.807231 2.61821 -0.242554 -0.87789 7.06259 0.789875 -0.938064 -1.85235 1.61083 -0.0 0.0 0.0 -0.0 0.0 0.0 -6.5451e-14 -2.54454e-14 -5.53441e-14 79.4936 20.0431 4.39591 -15.6839 -8.2975 29.137 -0.47135 18.9319 2.76541 4.80194e-10 -2.19319e-10 5.59825e-10 8.37069e-10 -3.79799e-10 9.58624e-10 4.80203e-10 -2.19321e-10 5.59817e-10 7.73091 5.47488 0.417314 4.80195e-10 -2.19326e-10 5.59824e-10 2.90554 0.965183 0.102902 4.80199e-10 -2.19325e-10 5.59828e-10 10.2786 0.731801 0.0259123 4.80186e-10 -2.19324e-10 5.59832e-10 2.22167 -0.733487 -0.20892 -6.53249e-14 -2.54427e-14 -5.55063e-14 -77.4669 36.7343 -8.25487 13.8155 -6.73294 -25.271 0.485766 -19.2058 2.80867 4.46175e-10 -5.83774e-10 -2.33439e-10 7.69145e-10 -1.01326e-09 -3.95319e-10 4.46172e-10 -5.83772e-10 -2.33429e-10 -7.73091 5.47488 -0.417314 4.46179e-10 -5.83771e-10 -2.33441e-10 -2.90554 0.965183 -0.102902 4.46175e-10 -5.83771e-10 -2.33438e-10 -10.2786 0.731801 -0.0259123 4.46176e-10 -5.83771e-10 -2.33447e-10 -2.22167 -0.733487 0.20892 -2.03217e-16 0.0 -3.88251e-19 -3.87588 -41.3371 -6.51807 -0.296355 36.4335 0.529926 0.0164667 -9.64812 1.89192 2.03217e-16 0.0 3.88251e-19 8.80076 -42.027 12.7578 0.274955 38.7142 -0.732405 1.37168 -9.82257 3.43408
